<?xml version="1.0" encoding="UTF-8"?>
<svg id="Layer_2" data-name="Layer 2" xmlns="http://www.w3.org/2000/svg" viewBox="0 0 323.95 118.3">
  <defs>
    <style>
      .cls-1 {
        font-family: AzonixRegular, Azonix;
        font-size: 41.2px;
      }

      .cls-1, .cls-2 {
        fill: #fff;
      }

      .cls-3 {
        fill: #fed210;
      }

      .cls-4 {
        fill: #1d1d1d;
      }

      .cls-5 {
        fill: #141314;
      }

      .cls-2 {
        font-family: Poppins-Regular, Poppins;
        font-size: 20px;
        letter-spacing: .71em;
      }

      .cls-6 {
        fill: #6e6f6f;
      }

      .cls-7 {
        fill: #212120;
      }

      .cls-8 {
        letter-spacing: -.19em;
      }
    </style>
  </defs>
  <g id="Layer_1-2" data-name="Layer 1">
    <g>
      <g>
        <text class="cls-1" transform="translate(127.45 60.56)"><tspan x="0" y="0">U</tspan><tspan class="cls-8" x="32.96" y="0">L</tspan><tspan x="53.15" y="0">TRON</tspan></text>
        <text class="cls-2" transform="translate(129.51 88.39)"><tspan x="0" y="0">XCHANGE</tspan></text>
      </g>
      <g>
        <polygon class="cls-7" points="12.39 67.29 0 74.46 51.19 104.59 63.91 96.47 12.39 67.29"/>
        <polygon class="cls-4" points="89.99 66.96 102.38 74.13 51.19 104.26 38.48 96.14 89.99 66.96"/>
        <polygon class="cls-6" points="63.27 6.73 63.44 21.07 11.48 50.67 11.48 36.62 63.27 6.73"/>
        <g>
          <polygon class="cls-5" points="70.39 37.69 58.44 30.3 58.44 18.35 70.39 25.74 70.39 37.69"/>
          <polygon class="cls-6" points="83.11 30.48 70.39 37.68 70.39 25.73 83.11 18.53 83.11 30.48"/>
          <polygon class="cls-3" points="70.39 25.73 83.11 18.53 70.84 11.33 58.44 18.35 70.39 25.73"/>
        </g>
        <g>
          <polygon class="cls-5" points="89.63 73.88 77.68 66.49 77.68 54.54 89.63 61.93 89.63 73.88"/>
          <polygon class="cls-6" points="102.35 66.67 89.63 73.87 89.63 61.92 102.35 54.72 102.35 66.67"/>
          <polygon class="cls-7" points="89.63 61.92 102.35 54.72 90.08 47.52 77.68 54.54 89.63 61.92"/>
        </g>
        <g>
          <polygon class="cls-6" points="12.8 74.37 24.75 66.98 24.75 55.03 12.8 62.42 12.8 74.37"/>
          <polygon class="cls-5" points=".07 67.16 12.8 74.36 12.8 62.41 .07 55.21 .07 67.16"/>
          <polygon class="cls-7" points="12.8 62.41 .07 55.21 12.35 48.01 24.75 55.03 12.8 62.41"/>
        </g>
        <polygon class="cls-6" points="102.38 74.13 102.38 88.81 51.14 117.95 51.15 103.95 102.38 74.13"/>
        <polygon class="cls-5" points="0 74.46 0 89.13 51.25 118.28 51.23 104.27 0 74.46"/>
        <polygon class="cls-3" points="0 29.79 19.42 18.63 32.07 11.33 38.9 7.39 39.43 7.09 51.39 .19 51.66 .03 51.71 0 63.27 6.74 24.72 29.78 51.14 44.9 89.35 22.21 102.38 29.3 51.14 58.85 0 29.79"/>
        <g>
          <polygon class="cls-5" points="0 29.79 51.14 58.85 51.14 72.9 0 43.97 0 29.79"/>
          <polygon class="cls-6" points="102.38 29.3 102.38 43.81 51.14 72.97 51.15 58.96 102.38 29.3"/>
          <g>
            <polygon class="cls-5" points="51.15 118.3 38.21 110.98 38.07 51.46 51.15 58.89 51.15 118.3"/>
            <polygon class="cls-6" points="51.15 118.3 64.09 110.47 64.09 51.46 51.15 58.89 51.15 118.3"/>
          </g>
        </g>
      </g>
    </g>
  </g>
</svg>