<?xml version="1.0" encoding="utf-8"?>
<!-- Generator: Adobe Illustrator 27.1.1, SVG Export Plug-In . SVG Version: 6.00 Build 0)  -->
<svg version="1.1" id="Layer_1" xmlns="http://www.w3.org/2000/svg" xmlns:xlink="http://www.w3.org/1999/xlink" x="0px" y="0px"
	 viewBox="0 0 2829 1172" style="enable-background:new 0 0 2829 1172;" xml:space="preserve">
<style type="text/css">
	.st0{clip-path:url(#SVGID_00000111913106483534091330000009535007794758024374_);}
	.st1{clip-path:url(#SVGID_00000085965216698005628240000000659947334411690381_);}
	.st2{fill:#E2A700;}
	.st3{clip-path:url(#SVGID_00000072962869267387036390000003772848171870476470_);}
	.st4{clip-path:url(#SVGID_00000166650771777455174480000014313733536857898145_);}
	.st5{clip-path:url(#SVGID_00000134214656243460164190000006873634618066974870_);}
	.st6{clip-path:url(#SVGID_00000011726048097455551530000002872355118092174476_);}
	.st7{clip-path:url(#SVGID_00000034060251752786976320000011084429463800121533_);}
	.st8{clip-path:url(#SVGID_00000045607051084489375720000005597014892945188484_);}
	.st9{clip-path:url(#SVGID_00000168837715238106250250000013787201860309610151_);}
	.st10{clip-path:url(#SVGID_00000142170534469351149570000009992775121109322940_);}
	.st11{clip-path:url(#SVGID_00000041974612731944680560000016469829961089159335_);}
	.st12{clip-path:url(#SVGID_00000132069017829849562300000006474634269737759617_);}
	.st13{clip-path:url(#SVGID_00000137812739882662988980000011841519313590351293_);}
	.st14{clip-path:url(#SVGID_00000029765813122990928560000003095447468434936230_);}
	.st15{clip-path:url(#SVGID_00000103262945511195011050000012554344312174967981_);}
	.st16{clip-path:url(#SVGID_00000139289574990695024470000018301896409590374844_);}
	.st17{clip-path:url(#SVGID_00000017513929124074504740000015708794436653643410_);}
	.st18{clip-path:url(#SVGID_00000019647670018244722800000017314416251746259375_);}
	.st19{fill:url(#SVGID_00000049900799619027940820000016998713964666133689_);}
	.st20{fill:none;stroke:#542800;stroke-width:2;stroke-miterlimit:10;}
	.st21{fill:#542800;}
	.st22{fill:none;stroke:url(#SVGID_00000044144064268853164650000012604861690652041915_);stroke-width:2;stroke-miterlimit:10;}
	.st23{fill:none;stroke:url(#SVGID_00000082355581602611084680000003762993602717931397_);stroke-width:2;stroke-miterlimit:10;}
	.st24{fill:#D3B32A;}
	.st25{fill:#331C0E;}
	.st26{clip-path:url(#SVGID_00000047034128969486353560000002605764078954603176_);}
	
		.st27{clip-path:url(#SVGID_00000130635752420331137900000011183042400381488278_);fill:url(#SVGID_00000029763102349219964470000016901710757068025787_);}
	.st28{clip-path:url(#SVGID_00000163039739019128460570000017706748205803787144_);}
	
		.st29{clip-path:url(#SVGID_00000003093047055019585020000015798712620461171889_);fill:url(#SVGID_00000013880591108858023860000014512980698696819124_);}
	.st30{clip-path:url(#SVGID_00000031921127405118016920000010402831429729590188_);}
	
		.st31{clip-path:url(#SVGID_00000127043396370178615410000009829864414494941322_);fill:url(#SVGID_00000102531823850554622750000002011449963475432880_);}
	.st32{clip-path:url(#SVGID_00000148645515028793073600000006910367668681005478_);}
	
		.st33{clip-path:url(#SVGID_00000024696642512148426520000016298554247093503408_);fill:url(#SVGID_00000141441482620359631110000012168892420769412000_);}
	.st34{clip-path:url(#SVGID_00000178206359295984508330000002432469392114648505_);}
	
		.st35{clip-path:url(#SVGID_00000177483363883899835170000016088046784578932151_);fill:url(#SVGID_00000042006814486434697160000006598870721217691288_);}
	.st36{clip-path:url(#SVGID_00000147904060826758573490000018245097845079819448_);}
	
		.st37{clip-path:url(#SVGID_00000103238472210628390900000007746837132450201987_);fill:url(#SVGID_00000067194611887112921680000015103242570072943767_);}
	.st38{clip-path:url(#SVGID_00000142855015542908249540000006697437733139338628_);}
	.st39{clip-path:url(#SVGID_00000041296294845059072400000002479155859086492552_);}
	.st40{fill:#FFFFFF;}
	.st41{clip-path:url(#SVGID_00000047762496416645156920000011547849166718190743_);fill:#351800;}
	.st42{fill:url(#SVGID_00000132052657731402851910000003576424418111667625_);}
	.st43{fill:url(#SVGID_00000113329782653058210550000014416450528198112423_);}
	.st44{fill:url(#SVGID_00000181054495051650731060000003234264982919554434_);}
	.st45{fill:url(#SVGID_00000003090458410665065660000015520620207450020541_);}
	.st46{fill:url(#SVGID_00000013888465333296658930000013309191284601796777_);}
	.st47{fill:url(#SVGID_00000181089579455619206330000016008640577951525820_);}
	.st48{fill:url(#SVGID_00000138533638491142416090000014050516186904447155_);}
	.st49{fill:url(#SVGID_00000018222182928327502720000002755477014915268487_);}
	.st50{fill:url(#SVGID_00000173865289164498174860000017827393417727639198_);}
	.st51{fill:url(#SVGID_00000164496834518152893430000011100593612960721855_);}
	.st52{fill:url(#SVGID_00000044152745063337564650000017176988566159985593_);}
	.st53{fill:url(#SVGID_00000036965652401149356470000009550298283393394099_);}
	.st54{fill:url(#SVGID_00000122695058987134641510000000507041954653558663_);}
	.st55{fill:url(#SVGID_00000116209143980885920190000000829974036070658722_);}
	.st56{fill:url(#SVGID_00000114067479232003678610000005255910254359415197_);}
	.st57{fill:url(#SVGID_00000146479242009809345090000001775756373628607651_);}
	.st58{fill:url(#SVGID_00000101085981582251873110000001633925223480256668_);}
	.st59{fill:url(#SVGID_00000034789644338318775610000006173659586818480563_);}
</style>
<g>
	<g>
		<path class="st40" d="M1399.3,327.8v115.1c0,63.6-51.5,115.1-115.1,115.1c-63.6,0-115.1-51.5-115.1-115.1V327.8h41v115.1
			c0,40.9,33.2,74.1,74.1,74.1s74.1-33.2,74.1-74.1V327.8H1399.3z"/>
		<path class="st40" d="M1622.1,516.9v41h-116.6c-11.6,0-22.6-2.7-32.3-7.5c-14.6-7.1-26.4-18.9-33.4-33.5
			c-4.9-9.7-7.7-20.6-7.7-32.3V327.8h41v160.9c1.9,14.6,13.5,26.2,28.2,28.2H1622.1z"/>
		<path class="st40" d="M1823.4,328v41.1h-94.5v189.1h-41.1V369.1h-94.5V328H1823.4z"/>
		<path class="st40" d="M2042.6,516.9l20.9,41.2h-46.1l-21.1-41.2l-22-43.1l-1-1.8c-7.1-11.8-20.1-19.7-35-19.7h-41v105.8h-41V327.8
			h145.3c17.2,0,32.7,7,43.9,18.2c11.2,11.3,18.2,26.9,18.2,44c0,25.2-14.9,46.9-36.4,56.6c-5.6,2.6-11.6,4.4-17.9,5.1
			c0,0,0,0-0.1,0L2042.6,516.9z M2001.7,411.2c3,0,5.9-0.5,8.6-1.9c7.7-3.4,12.4-10.9,12.4-19.3c0-7.5-4-12.7-6.3-15.2
			c-2.7-2.6-7.5-6-14.8-6h-104.2v42.4H2001.7z"/>
		<path class="st40" d="M2318.4,442.9c0,63.6-51.5,115.1-115.1,115.1c-63.5,0-115.1-51.5-115.1-115.1c0-63.5,51.5-115.1,115.1-115.1
			S2318.4,379.4,2318.4,442.9z M2277.4,442.9c0-40.8-33.2-74-74-74c-40.8,0-74,33.2-74,74s33.2,74,74,74
			C2244.1,517,2277.4,483.8,2277.4,442.9z"/>
		<path class="st40" d="M2573.4,327.8v230.2l-41.2-31.7l-147.9-114v145.7h-41.2V328.6l41.2,31.7l147.9,114V327.8H2573.4z"/>
	</g>
	<g>
		<path class="st40" d="M1211.1,714.4h0.6l27.9-59.4h25.1l-40.3,75.3l42,76.7h-25.5l-28.8-60.8h-0.6l-28.7,60.8h-25.2l41.3-76.7
			l-40.3-75.3h24.8L1211.1,714.4z"/>
		<path class="st40" d="M1475.6,761.2l0.2,0.6c0.3,15-3.9,26.6-12.5,34.9c-8.6,8.3-20.5,12.4-35.6,12.4c-15.6,0-28-5-37.3-15
			c-9.3-10-13.9-24-13.9-42V710c0-18,4.6-32,13.7-42.1c9.1-10.1,21.4-15.1,36.7-15.1c15.5,0,27.6,4,36.3,12.1
			c8.7,8,12.9,19.8,12.6,35.2l-0.2,0.6h-20.4c0-10.9-2.4-18.8-7.1-24c-4.7-5.1-11.8-7.7-21.3-7.7c-9.3,0-16.5,3.5-21.6,10.5
			c-5.1,7-7.6,17-7.6,30.1v42.5c0,13.2,2.6,23.3,7.8,30.4c5.2,7,12.6,10.5,22.1,10.5c9.2,0,16.1-2.5,20.7-7.6
			c4.6-5,6.9-13.1,6.9-24.3H1475.6z"/>
		<path class="st40" d="M1699,806.9h-21.2v-67h-59.5v67h-21.2V655h21.2v68.8h59.5V655h21.2V806.9z"/>
		<path class="st40" d="M1895.4,768.5H1850l-11,38.4h-22l45.6-152h20.6l45.2,152h-22L1895.4,768.5z M1854.8,751.7h35.9l-17.5-61.8
			h-0.6L1854.8,751.7z"/>
		<path class="st40" d="M2146.1,806.9h-21.3L2066,694.8l-0.6,0.2v111.9h-21.2V655h21.2l58.9,111.8l0.6-0.1V655h21.3V806.9z"/>
		<path class="st40" d="M2370.5,787.1c-3.6,5.8-9.4,10.9-17.3,15.3c-7.9,4.5-18.1,6.7-30.5,6.7c-15.9,0-28.7-4.8-38.4-14.5
			c-9.7-9.7-14.6-23.4-14.6-41.3v-45.1c0-17.6,4.7-31.2,14.1-40.9c9.4-9.7,21.9-14.5,37.5-14.5c15.4,0,27.2,4,35.6,11.9
			s12.4,18.8,12.1,32.6l-0.2,0.6h-19.9c0-9.1-2.3-16.2-6.9-21.2c-4.6-5-11.4-7.6-20.2-7.6c-9.5,0-17,3.3-22.5,10
			c-5.5,6.6-8.2,16.3-8.2,29v45.3c0,12.9,2.8,22.8,8.5,29.6c5.7,6.8,13.4,10.2,23.1,10.2c7.2,0,12.9-1.1,17.2-3.3
			c4.3-2.2,7.4-4.9,9.3-8.1v-35.4h-28v-15.4h49.3V787.1z"/>
		<path class="st40" d="M2569.6,736.4h-51.6v54.5h60.8v16.1h-81.9V655h81.4v16.3h-60.2v49h51.6V736.4z"/>
	</g>
</g>
<g>
	<g>
		<g>
			<path class="st2" d="M726.5,224.5c18.1,9.2,34.4,19.8,49,31.4c81.2,162.3-52.3,356.3-92.8,409.3c-14.9-18.2-29-38.4-40.5-60.1
				c22.9-28.7,60.8-84.7,80.8-160.8c29.9-113.9,9.9-181.5-28.1-190.1c-38.1-8.6-98.9,20.6-190.8,111.8
				C529.8,318.1,632.4,176.7,726.5,224.5z"/>
			<path class="st2" d="M753.1,735.6c-13.9-11.6-30-26.1-46.3-43.2c21.3-25.5,69.3-88.9,97.5-172.7c48.5-146.2,4-225.9-28.9-263.8
				c61.5,48.9,92.5,115.7,94.4,168.5C872,485,860.9,601.7,753.1,735.6z"/>
		</g>
		<path class="st2" d="M558.5,352.8c0,0,60.5-55.1,109.1-55.1s28.1,71.3,28.1,71.3s7.8-56.5-29.9-56.5
			C620.4,312.5,558.5,352.8,558.5,352.8z"/>
	</g>
	<g>
		<g>
			<path class="st2" d="M226.2,660.9c0.4-20.2,2.9-39.6,7-57.8C344,459.4,576.7,495.1,642,508.5c-9.9,21.4-21.9,42.8-36.5,62.6
				c-35.8-8.1-102.7-17.9-179.9-2.8c-115.6,22.6-167.7,70-158.9,108c8.8,38,61.6,80.1,183.6,123.1
				C396.1,797.3,224.1,766.4,226.2,660.9z"/>
			<path class="st2" d="M233.2,603.1c17.3-76.6,63.9-133.6,110.7-158.3c53.5-28.3,163.5-69.1,330.9-30.3
				c-4.4,17.5-10.5,38.4-18.7,60.5c-32.2-8.1-110.2-23.7-197.9-12.7C305.4,482.3,253,557,233.2,603.1z"/>
		</g>
		<path class="st2" d="M414.8,756.3c0,0-75.9-30.5-97.1-74.2c-21.1-43.8,52-56.3,52-56.3s-54.3,17.5-37.9,51.5
			C351.6,718.1,414.8,756.3,414.8,756.3z"/>
	</g>
	<g>
		<g>
			<path class="st2" d="M826.9,906.5c-72.2,31-145.7,26.8-193.1,3.5c-54.4-26.7-152-91.8-218.9-250c16.8-6.8,37.2-14.1,59.9-20.4
				c12.4,30.8,45.6,103.1,106,167.6C686.7,919,777.9,917.6,826.9,906.5z"/>
			<path class="st2" d="M877.7,878.2c-16.6,11.6-33.7,20.9-50.8,28.3C645.5,901.3,537.7,692,510.1,631.2c23.1-4.5,47.5-7.4,72.1-7.2
				c14.5,33.8,45.9,93.6,103.4,147.3c86.2,80.2,155.2,94.6,180.8,65.1c25.6-29.5,28.6-96.9-8.3-220.9
				C888.3,660.7,964.3,817.9,877.7,878.2z"/>
		</g>
		<path class="st2" d="M844.1,669.6c0,0,19.9,79.3-3.1,122.2c-23,42.8-76.1-9-76.1-9s46.1,33.6,63.9,0.4
			C850.4,743.2,844.1,669.6,844.1,669.6z"/>
	</g>
</g>
</svg>
