<?xml version="1.0" standalone="no"?>
<!DOCTYPE svg PUBLIC "-//W3C//DTD SVG 20010904//EN"
 "http://www.w3.org/TR/2001/REC-SVG-20010904/DTD/svg10.dtd">
<svg version="1.0" xmlns="http://www.w3.org/2000/svg"
 width="881.000000pt" height="881.000000pt" viewBox="0 0 881.000000 881.000000"
 preserveAspectRatio="xMidYMid meet">
<metadata>
Created by potrace 1.14, written by Peter Selinger 2001-2017
</metadata>
<g transform="translate(0.000000,881.000000) scale(0.100000,-0.100000)"
fill="#000000" stroke="none">
<path d="M5675 8803 c-284 -36 -594 -179 -895 -412 -146 -113 -205 -166 -371
-331 -168 -168 -245 -255 -432 -490 -24 -29 -193 -266 -229 -320 -59 -89 -177
-285 -173 -288 2 -2 30 23 63 55 551 539 1043 922 1457 1132 231 118 423 177
606 188 125 7 216 -7 304 -47 278 -126 435 -516 438 -1090 1 -94 -11 -321 -17
-357 -2 -10 -7 -48 -10 -84 -4 -36 -8 -76 -11 -90 -2 -13 -11 -69 -19 -124
-19 -118 -20 -123 -47 -251 -26 -125 -21 -105 -63 -269 -46 -180 -137 -473
-175 -560 -5 -11 -30 -74 -56 -140 -64 -160 -224 -488 -320 -655 -90 -157
-270 -430 -380 -577 l-76 -103 34 -62 c87 -161 184 -308 351 -531 l111 -147
17 22 c63 81 230 317 320 453 245 373 432 708 623 1120 124 266 251 608 325
875 17 63 35 126 40 140 22 63 90 419 105 555 3 28 8 61 10 75 26 146 26 681
0 819 -1 9 -6 43 -10 76 -28 249 -132 597 -254 855 -27 58 -41 73 -113 126
-313 230 -587 375 -793 420 -66 15 -295 26 -360 17z"/>
<path d="M6981 8218 c130 -156 291 -440 373 -659 32 -88 87 -266 100 -329 30
-140 51 -268 64 -390 9 -89 9 -559 -1 -645 -19 -178 -17 -161 -42 -317 -39
-247 -118 -560 -209 -832 -226 -677 -631 -1414 -1107 -2012 -49 -62 -89 -116
-89 -121 0 -24 541 -524 566 -523 5 1 52 57 104 126 52 69 100 131 105 137 6
7 18 23 27 37 10 14 38 54 63 90 53 74 234 345 251 375 6 11 49 83 94 160 93
156 266 492 325 630 21 50 42 94 47 100 4 5 8 15 8 22 0 7 11 36 24 65 114
251 282 828 321 1105 3 21 10 61 15 88 5 28 12 73 15 100 3 28 8 64 10 80 21
147 30 308 30 545 0 203 -4 282 -21 405 -8 58 -61 278 -88 365 -112 353 -348
763 -611 1060 -118 134 -398 400 -419 400 -4 0 17 -28 45 -62z"/>
<path d="M5485 7783 c-200 -34 -296 -66 -505 -166 -153 -73 -347 -196 -537
-339 -106 -80 -198 -162 -148 -132 524 313 1073 499 1334 452 199 -36 304
-224 305 -545 0 -40 3 -73 7 -73 16 0 37 202 34 325 -3 145 -8 177 -36 248
-48 121 -132 196 -250 222 -36 8 -171 13 -204 8z"/>
<path d="M5931 6954 c0 -11 3 -14 6 -6 3 7 2 16 -1 19 -3 4 -6 -2 -5 -13z"/>
<path d="M3689 6536 c-2 -2 -47 -7 -99 -10 -96 -7 -131 -10 -230 -22 -95 -10
-114 -13 -150 -18 -19 -3 -53 -8 -75 -11 -40 -5 -259 -47 -345 -64 -25 -6 -90
-22 -145 -36 -55 -14 -108 -28 -118 -30 -176 -39 -606 -204 -850 -326 -333
-167 -581 -369 -824 -669 -89 -111 -253 -348 -253 -367 0 -6 -3 -13 -8 -15 -4
-1 -24 -34 -45 -73 -52 -97 -109 -216 -162 -340 -33 -75 -86 -230 -115 -335
-17 -63 -35 -127 -40 -142 -17 -52 -1 -28 60 91 170 333 430 638 742 869 347
258 779 457 1250 577 57 14 128 33 158 40 50 13 119 28 196 41 16 3 36 7 44 9
35 10 321 52 411 60 35 4 74 8 87 10 164 27 1015 27 1202 0 14 -2 52 -6 85
-10 125 -13 152 -16 230 -26 102 -13 114 -15 150 -22 17 -3 52 -9 79 -12 27
-3 52 -8 56 -10 3 -2 26 -6 50 -10 65 -10 270 -52 341 -70 34 -9 63 -14 66
-11 16 15 183 536 197 611 2 11 11 45 20 74 9 30 15 56 13 57 -6 6 -462 94
-562 109 -60 9 -119 18 -130 20 -11 2 -45 7 -75 10 -30 3 -71 8 -90 10 -87 10
-135 15 -208 21 -42 3 -88 8 -102 11 -27 6 -805 14 -811 9z"/>
<path d="M3367 5354 c-1 -1 -67 -5 -147 -8 -80 -4 -158 -9 -175 -10 -16 -2
-66 -6 -110 -10 -44 -4 -91 -9 -105 -11 -14 -2 -52 -7 -84 -10 -33 -3 -71 -7
-85 -9 -69 -11 -219 -37 -241 -41 -14 -3 -41 -8 -60 -11 -51 -9 -321 -73 -350
-84 -14 -4 -74 -23 -135 -41 -245 -72 -507 -184 -750 -320 -134 -75 -303 -190
-425 -288 -105 -85 -308 -282 -391 -380 -30 -35 -62 -73 -72 -84 -19 -19 -59
-192 -73 -312 -3 -33 -8 -62 -9 -65 -16 -28 -26 -474 -12 -565 32 -217 160
-456 341 -639 77 -77 310 -266 329 -266 3 0 42 -22 86 -50 162 -100 455 -229
719 -314 272 -88 712 -185 962 -212 25 -3 56 -7 70 -9 14 -3 63 -7 110 -11 47
-3 91 -7 98 -9 6 -3 12 0 12 5 0 6 -5 10 -11 10 -22 0 -541 200 -679 262 -743
333 -1160 610 -1393 923 -20 28 -41 55 -45 60 -23 27 -93 186 -107 240 -17 68
-19 170 -4 235 26 117 125 272 250 391 149 144 409 306 669 418 354 153 940
308 1339 356 30 4 61 8 70 10 9 1 54 6 101 10 47 4 93 9 103 11 77 14 542 21
742 10 286 -15 522 -45 820 -104 l90 -18 29 40 c106 146 259 402 353 591 73
145 72 142 21 150 -24 4 -52 9 -63 11 -114 22 -143 27 -160 29 -11 2 -36 5
-55 9 -19 3 -53 8 -75 11 -22 3 -65 10 -95 15 -54 9 -100 15 -190 25 -25 3
-65 7 -90 10 -25 4 -67 8 -95 10 -27 3 -81 7 -120 11 -38 3 -88 7 -110 9 -139
13 -787 28 -798 19z"/>
<path d="M7940 3847 c0 -4 16 -60 34 -125 30 -101 91 -326 101 -372 1 -8 8
-33 13 -55 6 -22 13 -51 16 -65 3 -14 21 -97 40 -185 29 -133 52 -257 82 -436
7 -44 21 -163 29 -241 3 -32 8 -84 11 -115 7 -78 7 -385 0 -453 -28 -245 -65
-384 -139 -524 -135 -253 -360 -348 -701 -296 -347 52 -808 290 -1251 643
-105 84 -223 183 -240 201 -5 6 -30 28 -55 50 -107 92 -347 335 -460 466 -80
92 -127 150 -180 220 -14 18 -30 38 -35 44 -11 12 -80 104 -105 142 -79 116
-96 139 -102 142 -5 2 -8 8 -8 13 0 5 -22 41 -48 81 -126 189 -332 573 -402
747 l-14 34 -170 -7 c-94 -3 -182 -8 -196 -10 -14 -2 -56 -7 -95 -11 -82 -7
-151 -16 -310 -41 -50 -8 -106 -22 -112 -28 -15 -15 347 -702 495 -939 53 -85
295 -451 310 -468 7 -8 56 -72 109 -144 79 -107 202 -264 223 -285 3 -3 34
-39 70 -80 36 -41 81 -93 100 -115 46 -53 320 -327 390 -391 655 -593 1390
-927 2127 -966 28 -2 49 -6 46 -10 -2 -5 1 -8 6 -8 6 0 11 5 11 11 0 5 4 8 8
5 11 -6 269 119 389 190 379 222 540 390 651 680 17 45 36 104 43 130 6 27 13
58 15 69 23 98 33 248 30 405 -3 96 -7 189 -10 205 -3 17 -7 50 -11 75 -3 25
-9 70 -15 100 -5 30 -12 71 -15 90 -3 19 -13 62 -22 95 -8 33 -17 71 -20 85
-5 30 -46 171 -75 260 -125 387 -332 836 -520 1135 -21 33 -38 57 -38 52z"/>
<path d="M1825 3723 c-11 -3 -63 -19 -115 -35 -369 -119 -546 -318 -485 -547
68 -259 363 -547 845 -824 50 -28 302 -154 333 -166 36 -14 34 -5 -1 13 -25
13 -251 172 -300 211 -326 259 -552 501 -652 700 -46 91 -51 109 -52 182 0
116 60 215 196 320 61 48 216 133 240 133 8 0 18 5 21 10 6 10 3 11 -30 3z"/>
<path d="M3155 3555 c-22 -8 -80 -25 -130 -40 -113 -34 -382 -127 -460 -159
-16 -7 -46 -19 -65 -26 -19 -8 -36 -14 -37 -15 -3 -1 69 -166 126 -290 72
-154 197 -395 284 -545 27 -47 57 -99 67 -116 138 -238 375 -572 594 -834 113
-135 421 -454 546 -566 387 -344 889 -667 1256 -808 86 -33 275 -87 354 -101
231 -42 320 -50 565 -50 228 0 349 10 525 41 14 2 41 7 60 10 136 21 513 133
620 183 l45 21 -40 -5 c-22 -3 -65 -10 -95 -15 -249 -40 -577 -32 -845 21
-406 81 -782 246 -1189 522 -133 90 -335 249 -480 377 -117 104 -375 364 -475
480 -41 47 -86 99 -100 115 -14 17 -49 59 -76 95 -28 36 -53 67 -56 70 -15 12
-241 325 -274 379 -5 9 -19 30 -31 46 -12 17 -45 68 -74 115 -186 295 -382
668 -520 985 -11 28 -29 66 -38 86 l-17 36 -40 -12z"/>
<path d="M7765 2907 c0 -224 -8 -413 -19 -474 -2 -11 -7 -44 -11 -74 -4 -30
-8 -56 -10 -59 -2 -3 -6 -27 -9 -55 -26 -192 -126 -451 -205 -531 -141 -142
-374 -128 -648 38 -35 21 -63 36 -63 34 0 -8 138 -114 205 -158 270 -177 492
-192 637 -45 103 104 183 327 205 568 14 148 7 508 -11 604 -2 11 -7 47 -11
80 -4 32 -8 66 -10 75 -1 8 -6 38 -10 65 -5 28 -9 52 -10 55 -1 3 -5 28 -9 55
-17 103 -21 67 -21 -178z"/>
</g>
</svg>
